<svg xmlns="http://www.w3.org/2000/svg" viewBox="0 0 1500 950" width="1500" height="950" preserveAspectRatio="xMidYMid slice">
<defs><filter id="desat"><feColorMatrix type="saturate" values="0.06"/></filter>
<filter id="grain" x="0" y="0" width="100%" height="100%"><feTurbulence type="fractalNoise" baseFrequency="0.85" numOctaves="3" stitchTiles="stitch"/><feColorMatrix type="saturate" values="0"/></filter>
<radialGradient id="vig" cx="50%" cy="50%" r="78%"><stop offset="50%" stop-color="#000" stop-opacity="0"/><stop offset="100%" stop-color="#000" stop-opacity="0.55"/></radialGradient>
<linearGradient id="bg" x1="0" y1="0" x2="1" y2="1"><stop offset="0" stop-color="#0A0A10"/><stop offset="1" stop-color="#151021"/></linearGradient>
<filter id="soft" x="-40%" y="-40%" width="180%" height="180%"><feGaussianBlur stdDeviation="133"/></filter>
</defs>
<rect width="1500" height="950" fill="url(#bg)"/><ellipse cx="1489.5490006660114" cy="633.9068736985791" rx="276.36960963718593" ry="286.5689741638489" fill="#7B5CFF" opacity="0.57" filter="url(#soft)" style="mix-blend-mode:screen"/><ellipse cx="747.1004769089632" cy="583.2460477855057" rx="577.2453785967082" ry="342.32911340147257" fill="#FF5A2B" opacity="0.47" filter="url(#soft)" style="mix-blend-mode:screen"/><ellipse cx="242.28051445679742" cy="341.79403959074995" rx="305.9651487506926" ry="370.4651785697788" fill="#41E0FF" opacity="0.40" filter="url(#soft)" style="mix-blend-mode:screen"/><ellipse cx="468.14248004229745" cy="964.0141784015577" rx="479.8231654521078" ry="328.6801334717311" fill="#151021" opacity="0.31" filter="url(#soft)" style="mix-blend-mode:screen"/><ellipse cx="662.2506726183929" cy="838.6213471123483" rx="388.00212800502777" ry="302.03235304215923" fill="#7B5CFF" opacity="0.59" filter="url(#soft)" style="mix-blend-mode:screen"/>
<g filter="url(#desat)"><rect width="1500" height="950" fill="url(#vig)"</g><g><line x1="150" y1="0" x2="150" y2="950" stroke="#000000" stroke-width="1" opacity="0.25"/><line x1="300" y1="0" x2="300" y2="950" stroke="#000000" stroke-width="1" opacity="0.25"/><line x1="450" y1="0" x2="450" y2="950" stroke="#000000" stroke-width="1" opacity="0.25"/><line x1="600" y1="0" x2="600" y2="950" stroke="#000000" stroke-width="1" opacity="0.25"/><line x1="750" y1="0" x2="750" y2="950" stroke="#000000" stroke-width="1" opacity="0.25"/><line x1="900" y1="0" x2="900" y2="950" stroke="#000000" stroke-width="1" opacity="0.25"/><line x1="1050" y1="0" x2="1050" y2="950" stroke="#000000" stroke-width="1" opacity="0.25"/><line x1="1200" y1="0" x2="1200" y2="950" stroke="#000000" stroke-width="1" opacity="0.25"/><line x1="1350" y1="0" x2="1350" y2="950" stroke="#000000" stroke-width="1" opacity="0.25"/><line x1="0" y1="158.33333333333334" x2="1500" y2="158.33333333333334" stroke="#000000" stroke-width="1" opacity="0.25"/><line x1="0" y1="316.6666666666667" x2="1500" y2="316.6666666666667" stroke="#000000" stroke-width="1" opacity="0.25"/><line x1="0" y1="475" x2="1500" y2="475" stroke="#000000" stroke-width="1" opacity="0.25"/><line x1="0" y1="633.3333333333334" x2="1500" y2="633.3333333333334" stroke="#000000" stroke-width="1" opacity="0.25"/><line x1="0" y1="791.6666666666667" x2="1500" y2="791.6666666666667" stroke="#000000" stroke-width="1" opacity="0.25"/><path d="M 44 57 H 76 M 60 41 V 73" stroke="#111" stroke-width="2" opacity="0.75"/><path d="M 1424 57 H 1456 M 1440 41 V 73" stroke="#111" stroke-width="2" opacity="0.75"/><path d="M 44 893 H 76 M 60 877 V 909" stroke="#111" stroke-width="2" opacity="0.75"/><path d="M 1424 893 H 1456 M 1440 877 V 909" stroke="#111" stroke-width="2" opacity="0.75"/><text x="60" y="893" font-family="Arial, Helvetica, sans-serif" font-size="21" letter-spacing="6" fill="#111" opacity="0.8">DRAFT — V0.3</text></g><rect width="1500" height="950" fill="url(#vig)"/>
<rect width="1500" height="950" filter="url(#grain)" opacity="0.17" style="mix-blend-mode:overlay"/>
</svg>