<svg xmlns="http://www.w3.org/2000/svg" viewBox="0 0 1200 1500" width="1200" height="1500" preserveAspectRatio="xMidYMid slice">
<defs>
<filter id="grain" x="0" y="0" width="100%" height="100%"><feTurbulence type="fractalNoise" baseFrequency="0.85" numOctaves="3" stitchTiles="stitch"/><feColorMatrix type="saturate" values="0"/></filter>
<radialGradient id="vig" cx="50%" cy="50%" r="78%"><stop offset="50%" stop-color="#000" stop-opacity="0"/><stop offset="100%" stop-color="#000" stop-opacity="0.28"/></radialGradient>
<linearGradient id="bg" x1="0" y1="1" x2="1" y2="0"><stop offset="0" stop-color="#ECE6DA"/><stop offset="1" stop-color="#e4dfd5"/></linearGradient>
</defs>
<rect width="1200" height="1500" fill="url(#bg)"/><line x1="200" y1="0" x2="200" y2="1500" stroke="#101013" stroke-width="1" opacity="0.1"/><line x1="400" y1="0" x2="400" y2="1500" stroke="#101013" stroke-width="1" opacity="0.1"/><line x1="600" y1="0" x2="600" y2="1500" stroke="#101013" stroke-width="1" opacity="0.1"/><line x1="800" y1="0" x2="800" y2="1500" stroke="#101013" stroke-width="1" opacity="0.1"/><line x1="1000" y1="0" x2="1000" y2="1500" stroke="#101013" stroke-width="1" opacity="0.1"/><line x1="0" y1="187.5" x2="1200" y2="187.5" stroke="#101013" stroke-width="1" opacity="0.1"/><line x1="0" y1="375" x2="1200" y2="375" stroke="#101013" stroke-width="1" opacity="0.1"/><line x1="0" y1="562.5" x2="1200" y2="562.5" stroke="#101013" stroke-width="1" opacity="0.1"/><line x1="0" y1="750" x2="1200" y2="750" stroke="#101013" stroke-width="1" opacity="0.1"/><line x1="0" y1="937.5" x2="1200" y2="937.5" stroke="#101013" stroke-width="1" opacity="0.1"/><line x1="0" y1="1125" x2="1200" y2="1125" stroke="#101013" stroke-width="1" opacity="0.1"/><line x1="0" y1="1312.5" x2="1200" y2="1312.5" stroke="#101013" stroke-width="1" opacity="0.1"/><rect x="516.3535617291927" y="900.2271676110105" width="569.1551756020635" height="255.72480345843357" fill="#E8452B" style="mix-blend-mode:multiply" opacity="0.95"/><circle cx="461.7887999117374" cy="334.4732660043519" r="227.15160129591823" fill="#101013" opacity="0.9"/><text x="600" y="690.9090909090909" text-anchor="middle" font-family="'Arial Black', Arial, Helvetica, sans-serif" font-weight="900" font-size="454.5454545454545" letter-spacing="-20.454545454545453" fill="#101013">MONO</text><text x="600" y="1109.090909090909" text-anchor="middle" font-family="'Arial Black', Arial, Helvetica, sans-serif" font-weight="900" font-size="454.5454545454545" letter-spacing="-20.454545454545453" fill="#101013">LITH</text><text x="72" y="1410" font-family="Arial, Helvetica, sans-serif" font-size="21.599999999999998" letter-spacing="4" fill="#101013" opacity="0.8">POSTER SERIES</text><text x="1128" y="135" text-anchor="end" font-family="Arial, Helvetica, sans-serif" font-size="21.599999999999998" letter-spacing="4" fill="#101013" opacity="0.55">01</text><rect x="72" y="165" width="168.00000000000003" height="9" fill="#E8452B"/>
<rect width="1200" height="1500" fill="url(#vig)"/>
<rect width="1200" height="1500" filter="url(#grain)" opacity="0.12" style="mix-blend-mode:overlay"/>
</svg>