<svg xmlns="http://www.w3.org/2000/svg" viewBox="0 0 1500 950" width="1500" height="950" preserveAspectRatio="xMidYMid slice">
<defs>
<filter id="grain" x="0" y="0" width="100%" height="100%"><feTurbulence type="fractalNoise" baseFrequency="0.85" numOctaves="3" stitchTiles="stitch"/><feColorMatrix type="saturate" values="0"/></filter>
<radialGradient id="vig" cx="50%" cy="50%" r="78%"><stop offset="50%" stop-color="#000" stop-opacity="0"/><stop offset="100%" stop-color="#000" stop-opacity="0.35"/></radialGradient>
<linearGradient id="bg" x1="0" y1="0" x2="0" y2="1"><stop offset="0" stop-color="#121216"/><stop offset="1" stop-color="#2d2d2f"/></linearGradient>
</defs>
<rect width="1500" height="950" fill="url(#bg)"/><line x1="187.5" y1="0" x2="187.5" y2="950" stroke="#F2EFE9" stroke-width="1" opacity="0.09"/><line x1="375" y1="0" x2="375" y2="950" stroke="#F2EFE9" stroke-width="1" opacity="0.09"/><line x1="562.5" y1="0" x2="562.5" y2="950" stroke="#F2EFE9" stroke-width="1" opacity="0.09"/><line x1="750" y1="0" x2="750" y2="950" stroke="#F2EFE9" stroke-width="1" opacity="0.09"/><line x1="937.5" y1="0" x2="937.5" y2="950" stroke="#F2EFE9" stroke-width="1" opacity="0.09"/><line x1="1125" y1="0" x2="1125" y2="950" stroke="#F2EFE9" stroke-width="1" opacity="0.09"/><line x1="1312.5" y1="0" x2="1312.5" y2="950" stroke="#F2EFE9" stroke-width="1" opacity="0.09"/><line x1="0" y1="190" x2="1500" y2="190" stroke="#F2EFE9" stroke-width="1" opacity="0.09"/><line x1="0" y1="380" x2="1500" y2="380" stroke="#F2EFE9" stroke-width="1" opacity="0.09"/><line x1="0" y1="570" x2="1500" y2="570" stroke="#F2EFE9" stroke-width="1" opacity="0.09"/><line x1="0" y1="760" x2="1500" y2="760" stroke="#F2EFE9" stroke-width="1" opacity="0.09"/><rect x="533.7602845975198" y="156.06951083056634" width="551.197024807334" height="220.47880992293358" fill="#F2EFE9" opacity="0.92"/><rect x="515.6593702384271" y="463.13601499656215" width="545.4299415461719" height="218.17197661846876" fill="#E8452B" opacity="0.92"/><circle cx="831.5356288687325" cy="632.1168669499457" r="381.6461485577747" fill="#F2EFE9" style="mix-blend-mode:multiply" opacity="0.92"/>
<rect width="1500" height="950" fill="url(#vig)"/>
<rect width="1500" height="950" filter="url(#grain)" opacity="0.13" style="mix-blend-mode:overlay"/>
</svg>