<svg xmlns="http://www.w3.org/2000/svg" viewBox="0 0 1500 950" width="1500" height="950" preserveAspectRatio="xMidYMid slice">
<defs>
<filter id="grain" x="0" y="0" width="100%" height="100%"><feTurbulence type="fractalNoise" baseFrequency="0.85" numOctaves="3" stitchTiles="stitch"/><feColorMatrix type="saturate" values="0"/></filter>
<radialGradient id="vig" cx="50%" cy="50%" r="78%"><stop offset="50%" stop-color="#000" stop-opacity="0"/><stop offset="100%" stop-color="#000" stop-opacity="0.35"/></radialGradient>
<linearGradient id="bg" x1="0" y1="0" x2="0" y2="1"><stop offset="0" stop-color="#1A1A22"/><stop offset="1" stop-color="#34343a"/></linearGradient>
</defs>
<rect width="1500" height="950" fill="url(#bg)"/><line x1="187.5" y1="0" x2="187.5" y2="950" stroke="#F2EFE9" stroke-width="1" opacity="0.09"/><line x1="375" y1="0" x2="375" y2="950" stroke="#F2EFE9" stroke-width="1" opacity="0.09"/><line x1="562.5" y1="0" x2="562.5" y2="950" stroke="#F2EFE9" stroke-width="1" opacity="0.09"/><line x1="750" y1="0" x2="750" y2="950" stroke="#F2EFE9" stroke-width="1" opacity="0.09"/><line x1="937.5" y1="0" x2="937.5" y2="950" stroke="#F2EFE9" stroke-width="1" opacity="0.09"/><line x1="1125" y1="0" x2="1125" y2="950" stroke="#F2EFE9" stroke-width="1" opacity="0.09"/><line x1="1312.5" y1="0" x2="1312.5" y2="950" stroke="#F2EFE9" stroke-width="1" opacity="0.09"/><line x1="0" y1="190" x2="1500" y2="190" stroke="#F2EFE9" stroke-width="1" opacity="0.09"/><line x1="0" y1="380" x2="1500" y2="380" stroke="#F2EFE9" stroke-width="1" opacity="0.09"/><line x1="0" y1="570" x2="1500" y2="570" stroke="#F2EFE9" stroke-width="1" opacity="0.09"/><line x1="0" y1="760" x2="1500" y2="760" stroke="#F2EFE9" stroke-width="1" opacity="0.09"/><rect x="688.9683030196466" y="656.2978204712273" width="371.8472573440522" height="148.73890293762088" fill="#F2EFE9" opacity="0.92"/><path d="M 69.11296398611739 725.278937232215 A 377.63831326738 377.63831326738 0 0 1 824.3895905208774 -29.997689302544984 Z" fill="#C7F94D" opacity="0.92"/><circle cx="660.1164640858768" cy="215.97520939772951" r="269.5414533605799" fill="#F2EFE9" style="mix-blend-mode:screen" opacity="0.92"/><circle cx="1204.596625326667" cy="565.4676822642797" r="357.6564428396523" fill="#C7F94D" style="mix-blend-mode:screen" opacity="0.92"/><rect x="737.4141864012927" y="114.55280490918094" width="750.728081865236" height="300.2912327460944" fill="#F2EFE9" opacity="0.92"/>
<rect width="1500" height="950" fill="url(#vig)"/>
<rect width="1500" height="950" filter="url(#grain)" opacity="0.13" style="mix-blend-mode:overlay"/>
</svg>