<svg xmlns="http://www.w3.org/2000/svg" viewBox="0 0 1500 950" width="1500" height="950" preserveAspectRatio="xMidYMid slice">
<defs>
<filter id="grain" x="0" y="0" width="100%" height="100%"><feTurbulence type="fractalNoise" baseFrequency="0.85" numOctaves="3" stitchTiles="stitch"/><feColorMatrix type="saturate" values="0"/></filter>
<radialGradient id="vig" cx="50%" cy="50%" r="78%"><stop offset="50%" stop-color="#000" stop-opacity="0"/><stop offset="100%" stop-color="#000" stop-opacity="0.28"/></radialGradient>
<linearGradient id="bg" x1="0" y1="1" x2="1" y2="0"><stop offset="0" stop-color="#ECE6DA"/><stop offset="1" stop-color="#e4dfd5"/></linearGradient>
</defs>
<rect width="1500" height="950" fill="url(#bg)"/><line x1="250" y1="0" x2="250" y2="950" stroke="#101013" stroke-width="1" opacity="0.1"/><line x1="500" y1="0" x2="500" y2="950" stroke="#101013" stroke-width="1" opacity="0.1"/><line x1="750" y1="0" x2="750" y2="950" stroke="#101013" stroke-width="1" opacity="0.1"/><line x1="1000" y1="0" x2="1000" y2="950" stroke="#101013" stroke-width="1" opacity="0.1"/><line x1="1250" y1="0" x2="1250" y2="950" stroke="#101013" stroke-width="1" opacity="0.1"/><line x1="0" y1="237.5" x2="1500" y2="237.5" stroke="#101013" stroke-width="1" opacity="0.1"/><line x1="0" y1="475" x2="1500" y2="475" stroke="#101013" stroke-width="1" opacity="0.1"/><line x1="0" y1="712.5" x2="1500" y2="712.5" stroke="#101013" stroke-width="1" opacity="0.1"/><rect x="669.0685473382473" y="688.7339945612476" width="487.5582402048167" height="159.48982273787257" fill="#E8452B" style="mix-blend-mode:multiply" opacity="0.95"/><circle cx="1027.5625566020608" cy="318.7124083988601" r="215.35320599796253" fill="#101013" opacity="0.9"/><text x="750" y="427.5" text-anchor="middle" font-family="'Arial Black', Arial, Helvetica, sans-serif" font-weight="900" font-size="365.38461538461536" letter-spacing="-16.44230769230769" fill="#101013">MONO</text><text x="750" y="763.6538461538462" text-anchor="middle" font-family="'Arial Black', Arial, Helvetica, sans-serif" font-weight="900" font-size="365.38461538461536" letter-spacing="-16.44230769230769" fill="#101013">LITH</text><text x="90" y="893" font-family="Arial, Helvetica, sans-serif" font-size="26.999999999999996" letter-spacing="4" fill="#101013" opacity="0.8">POSTER SERIES</text><text x="1410" y="85.5" text-anchor="end" font-family="Arial, Helvetica, sans-serif" font-size="26.999999999999996" letter-spacing="4" fill="#101013" opacity="0.55">01</text><rect x="90" y="104.5" width="210.00000000000003" height="5.7" fill="#E8452B"/>
<rect width="1500" height="950" fill="url(#vig)"/>
<rect width="1500" height="950" filter="url(#grain)" opacity="0.12" style="mix-blend-mode:overlay"/>
</svg>