<svg xmlns="http://www.w3.org/2000/svg" viewBox="0 0 1500 950" width="1500" height="950" preserveAspectRatio="xMidYMid slice">
<defs><filter id="desat"><feColorMatrix type="saturate" values="0.06"/></filter>
<filter id="grain" x="0" y="0" width="100%" height="100%"><feTurbulence type="fractalNoise" baseFrequency="0.85" numOctaves="3" stitchTiles="stitch"/><feColorMatrix type="saturate" values="0"/></filter>
<radialGradient id="vig" cx="50%" cy="50%" r="78%"><stop offset="50%" stop-color="#000" stop-opacity="0"/><stop offset="100%" stop-color="#000" stop-opacity="0.55"/></radialGradient>
<linearGradient id="bg" x1="0" y1="0" x2="1" y2="1"><stop offset="0" stop-color="#070B16"/><stop offset="1" stop-color="#131E3A"/></linearGradient>
<filter id="soft" x="-40%" y="-40%" width="180%" height="180%"><feGaussianBlur stdDeviation="133"/></filter>
</defs>
<rect width="1500" height="950" fill="url(#bg)"/><ellipse cx="1383.9444397715852" cy="695.5535110889468" rx="442.76431462727487" ry="290.7579078543931" fill="#FF5A2B" opacity="0.41" filter="url(#soft)" style="mix-blend-mode:screen"/><ellipse cx="955.6390835205093" cy="737.7045004686806" rx="514.3601659778506" ry="304.53801445802674" fill="#5C7CFF" opacity="0.53" filter="url(#soft)" style="mix-blend-mode:screen"/><ellipse cx="1102.5157989934087" cy="327.52116081537685" rx="594.7642796672881" ry="324.5171169252135" fill="#8FB7FF" opacity="0.57" filter="url(#soft)" style="mix-blend-mode:screen"/><ellipse cx="1309.6001751953736" cy="885.59665137087" rx="408.96062543615704" ry="431.20924490783364" fill="#131E3A" opacity="0.40" filter="url(#soft)" style="mix-blend-mode:screen"/><ellipse cx="469.5946247898974" cy="487.01678421115497" rx="377.2165466286242" ry="307.6950725959614" fill="#FF5A2B" opacity="0.55" filter="url(#soft)" style="mix-blend-mode:screen"/><circle cx="925.3254431532696" cy="411.69839771930134" r="398.1430032290518" fill="none" stroke="#FF5A2B" stroke-width="3" opacity="0.75"/>
<g filter="url(#desat)"><rect width="1500" height="950" fill="url(#vig)"</g><g><line x1="150" y1="0" x2="150" y2="950" stroke="#000000" stroke-width="1" opacity="0.25"/><line x1="300" y1="0" x2="300" y2="950" stroke="#000000" stroke-width="1" opacity="0.25"/><line x1="450" y1="0" x2="450" y2="950" stroke="#000000" stroke-width="1" opacity="0.25"/><line x1="600" y1="0" x2="600" y2="950" stroke="#000000" stroke-width="1" opacity="0.25"/><line x1="750" y1="0" x2="750" y2="950" stroke="#000000" stroke-width="1" opacity="0.25"/><line x1="900" y1="0" x2="900" y2="950" stroke="#000000" stroke-width="1" opacity="0.25"/><line x1="1050" y1="0" x2="1050" y2="950" stroke="#000000" stroke-width="1" opacity="0.25"/><line x1="1200" y1="0" x2="1200" y2="950" stroke="#000000" stroke-width="1" opacity="0.25"/><line x1="1350" y1="0" x2="1350" y2="950" stroke="#000000" stroke-width="1" opacity="0.25"/><line x1="0" y1="158.33333333333334" x2="1500" y2="158.33333333333334" stroke="#000000" stroke-width="1" opacity="0.25"/><line x1="0" y1="316.6666666666667" x2="1500" y2="316.6666666666667" stroke="#000000" stroke-width="1" opacity="0.25"/><line x1="0" y1="475" x2="1500" y2="475" stroke="#000000" stroke-width="1" opacity="0.25"/><line x1="0" y1="633.3333333333334" x2="1500" y2="633.3333333333334" stroke="#000000" stroke-width="1" opacity="0.25"/><line x1="0" y1="791.6666666666667" x2="1500" y2="791.6666666666667" stroke="#000000" stroke-width="1" opacity="0.25"/><path d="M 44 57 H 76 M 60 41 V 73" stroke="#111" stroke-width="2" opacity="0.75"/><path d="M 1424 57 H 1456 M 1440 41 V 73" stroke="#111" stroke-width="2" opacity="0.75"/><path d="M 44 893 H 76 M 60 877 V 909" stroke="#111" stroke-width="2" opacity="0.75"/><path d="M 1424 893 H 1456 M 1440 877 V 909" stroke="#111" stroke-width="2" opacity="0.75"/><text x="60" y="893" font-family="Arial, Helvetica, sans-serif" font-size="21" letter-spacing="6" fill="#111" opacity="0.8">DRAFT — V0.3</text></g><rect width="1500" height="950" fill="url(#vig)"/>
<rect width="1500" height="950" filter="url(#grain)" opacity="0.17" style="mix-blend-mode:overlay"/>
</svg>