<svg xmlns="http://www.w3.org/2000/svg" viewBox="0 0 1100 1400" width="1100" height="1400" preserveAspectRatio="xMidYMid slice">
<defs>
<filter id="grain" x="0" y="0" width="100%" height="100%"><feTurbulence type="fractalNoise" baseFrequency="0.85" numOctaves="3" stitchTiles="stitch"/><feColorMatrix type="saturate" values="0"/></filter>
<radialGradient id="vig" cx="50%" cy="50%" r="78%"><stop offset="50%" stop-color="#000" stop-opacity="0"/><stop offset="100%" stop-color="#000" stop-opacity="0.28"/></radialGradient>
<linearGradient id="bg" x1="0" y1="1" x2="1" y2="0"><stop offset="0" stop-color="#121216"/><stop offset="1" stop-color="#6c6c71"/></linearGradient>
</defs>
<rect width="1100" height="1400" fill="url(#bg)"/><line x1="183.33333333333334" y1="0" x2="183.33333333333334" y2="1400" stroke="#F2EFE9" stroke-width="1" opacity="0.1"/><line x1="366.6666666666667" y1="0" x2="366.6666666666667" y2="1400" stroke="#F2EFE9" stroke-width="1" opacity="0.1"/><line x1="550" y1="0" x2="550" y2="1400" stroke="#F2EFE9" stroke-width="1" opacity="0.1"/><line x1="733.3333333333334" y1="0" x2="733.3333333333334" y2="1400" stroke="#F2EFE9" stroke-width="1" opacity="0.1"/><line x1="916.6666666666667" y1="0" x2="916.6666666666667" y2="1400" stroke="#F2EFE9" stroke-width="1" opacity="0.1"/><line x1="0" y1="175" x2="1100" y2="175" stroke="#F2EFE9" stroke-width="1" opacity="0.1"/><line x1="0" y1="350" x2="1100" y2="350" stroke="#F2EFE9" stroke-width="1" opacity="0.1"/><line x1="0" y1="525" x2="1100" y2="525" stroke="#F2EFE9" stroke-width="1" opacity="0.1"/><line x1="0" y1="700" x2="1100" y2="700" stroke="#F2EFE9" stroke-width="1" opacity="0.1"/><line x1="0" y1="875" x2="1100" y2="875" stroke="#F2EFE9" stroke-width="1" opacity="0.1"/><line x1="0" y1="1050" x2="1100" y2="1050" stroke="#F2EFE9" stroke-width="1" opacity="0.1"/><line x1="0" y1="1225" x2="1100" y2="1225" stroke="#F2EFE9" stroke-width="1" opacity="0.1"/><rect x="251.5608141757548" y="775.5517582260071" width="576.022182708839" height="287.50182762462646" fill="#E8452B" style="mix-blend-mode:multiply" opacity="0.95"/><circle cx="335.5120770470239" cy="737.0240576541983" r="111.62021767813712" fill="#F2EFE9" opacity="0.9"/><text x="550" y="656.6666666666666" text-anchor="middle" font-family="'Arial Black', Arial, Helvetica, sans-serif" font-weight="900" font-size="333.3333333333333" letter-spacing="-14.999999999999998" fill="#F2EFE9">SET</text><text x="550" y="963.3333333333333" text-anchor="middle" font-family="'Arial Black', Arial, Helvetica, sans-serif" font-weight="900" font-size="333.3333333333333" letter-spacing="-14.999999999999998" fill="#F2EFE9">NOTES</text><text x="66" y="1316" font-family="Arial, Helvetica, sans-serif" font-size="19.799999999999997" letter-spacing="4" fill="#F2EFE9" opacity="0.8">BEHIND THE SCENES</text><text x="1034" y="126" text-anchor="end" font-family="Arial, Helvetica, sans-serif" font-size="19.799999999999997" letter-spacing="4" fill="#F2EFE9" opacity="0.55">12</text><rect x="66" y="154" width="154.00000000000003" height="8.4" fill="#E8452B"/>
<rect width="1100" height="1400" fill="url(#vig)"/>
<rect width="1100" height="1400" filter="url(#grain)" opacity="0.12" style="mix-blend-mode:overlay"/>
</svg>