<svg xmlns="http://www.w3.org/2000/svg" viewBox="0 0 1500 1000" width="1500" height="1000" preserveAspectRatio="xMidYMid slice">
<defs>
<filter id="grain" x="0" y="0" width="100%" height="100%"><feTurbulence type="fractalNoise" baseFrequency="0.85" numOctaves="3" stitchTiles="stitch"/><feColorMatrix type="saturate" values="0"/></filter>
<radialGradient id="vig" cx="50%" cy="50%" r="78%"><stop offset="50%" stop-color="#000" stop-opacity="0"/><stop offset="100%" stop-color="#000" stop-opacity="0.28"/></radialGradient>
<linearGradient id="bg" x1="0" y1="1" x2="1" y2="0"><stop offset="0" stop-color="#0C1410"/><stop offset="1" stop-color="#6b756d"/></linearGradient>
</defs>
<rect width="1500" height="1000" fill="url(#bg)"/><line x1="250" y1="0" x2="250" y2="1000" stroke="#F1EFE6" stroke-width="1" opacity="0.1"/><line x1="500" y1="0" x2="500" y2="1000" stroke="#F1EFE6" stroke-width="1" opacity="0.1"/><line x1="750" y1="0" x2="750" y2="1000" stroke="#F1EFE6" stroke-width="1" opacity="0.1"/><line x1="1000" y1="0" x2="1000" y2="1000" stroke="#F1EFE6" stroke-width="1" opacity="0.1"/><line x1="1250" y1="0" x2="1250" y2="1000" stroke="#F1EFE6" stroke-width="1" opacity="0.1"/><line x1="0" y1="250" x2="1500" y2="250" stroke="#F1EFE6" stroke-width="1" opacity="0.1"/><line x1="0" y1="500" x2="1500" y2="500" stroke="#F1EFE6" stroke-width="1" opacity="0.1"/><line x1="0" y1="750" x2="1500" y2="750" stroke="#F1EFE6" stroke-width="1" opacity="0.1"/><rect x="461.50186490267515" y="573.5271056927741" width="702.9222484154162" height="164.69754199963063" fill="#D9FF4D" style="mix-blend-mode:multiply" opacity="0.95"/><circle cx="421.47898612311116" cy="204.44189283298329" r="217.59422215400267" fill="#F1EFE6" opacity="0.9"/><text x="750" y="450" text-anchor="middle" font-family="'Arial Black', Arial, Helvetica, sans-serif" font-weight="900" font-size="384.6153846153846" letter-spacing="-17.307692307692307" fill="#F1EFE6">TERRA</text><text x="750" y="803.8461538461538" text-anchor="middle" font-family="'Arial Black', Arial, Helvetica, sans-serif" font-weight="900" font-size="384.6153846153846" letter-spacing="-17.307692307692307" fill="#F1EFE6">NOVA</text><text x="90" y="940" font-family="Arial, Helvetica, sans-serif" font-size="26.999999999999996" letter-spacing="4" fill="#F1EFE6" opacity="0.8">CREATIVE CAMPAIGN</text><text x="1410" y="90" text-anchor="end" font-family="Arial, Helvetica, sans-serif" font-size="26.999999999999996" letter-spacing="4" fill="#F1EFE6" opacity="0.55">11</text><rect x="90" y="110" width="210.00000000000003" height="6" fill="#D9FF4D"/>
<rect width="1500" height="1000" fill="url(#vig)"/>
<rect width="1500" height="1000" filter="url(#grain)" opacity="0.12" style="mix-blend-mode:overlay"/>
</svg>